<svg xmlns="http://www.w3.org/2000/svg" style="display: none;">
  <symbol id="dashboard" viewBox="0 0 24 24">
    <path fill="currentColor" d="M20.7885 9.09136L12.2886 3.09136C12.2041 3.03179 12.1033 2.99982 12 2.99982C11.8967 2.99982 11.7959 3.03179 11.7114 3.09136L3.21145 9.09136C3.14613 9.13763 3.09284 9.19888 3.05605 9.26998C3.01926 9.34108 3.00004 9.41995 3 9.50001V20.5C2.99996 20.5657 3.01287 20.6307 3.03798 20.6914C3.06309 20.7521 3.09992 20.8072 3.14636 20.8536C3.1928 20.9001 3.24793 20.9369 3.30861 20.962C3.36929 20.9871 3.43433 21 3.5 21H9C9.06567 21 9.13071 20.9871 9.19139 20.962C9.25207 20.9369 9.3072 20.9001 9.35364 20.8536C9.40008 20.8072 9.43691 20.7521 9.46202 20.6914C9.48713 20.6307 9.50004 20.5657 9.5 20.5V14.5H14.5V20.5C14.5 20.5657 14.5129 20.6307 14.538 20.6914C14.5631 20.7521 14.5999 20.8072 14.6464 20.8536C14.6928 20.9001 14.7479 20.9369 14.8086 20.962C14.8693 20.9871 14.9343 21 15 21H20.5C20.5657 21 20.6307 20.9871 20.6914 20.962C20.7521 20.9369 20.8072 20.9001 20.8536 20.8536C20.9001 20.8072 20.9369 20.7521 20.962 20.6914C20.9871 20.6307 21 20.5657 21 20.5V9.50001C21 9.41995 20.9807 9.34108 20.944 9.26998C20.9072 9.19888 20.8539 9.13763 20.7885 9.09136Z"/>
  </symbol>

  <symbol id="documents" viewBox="0 0 24 24">
    <path fill="currentColor" d="M17.5 2H6.5C5.83715 2.00061 5.20161 2.2642 4.73291 2.73291C4.2642 3.20161 4.00061 3.83715 4 4.5V19.5C4.00061 20.1629 4.2642 20.7984 4.73291 21.2671C5.20161 21.7358 5.83715 21.9994 6.5 22H17.5C18.1629 21.9994 18.7984 21.7358 19.2671 21.2671C19.7358 20.7984 19.9994 20.1629 20 19.5V4.5C19.9994 3.83715 19.7358 3.20161 19.2671 2.73291C18.7984 2.2642 18.1629 2.00061 17.5 2ZM11.5 16H8.5C8.36739 16 8.24021 15.9473 8.14645 15.8536C8.05268 15.7598 8 15.6326 8 15.5C8 15.3674 8.05268 15.2402 8.14645 15.1464C8.24021 15.0527 8.36739 15 8.5 15H11.5C11.6326 15 11.7598 15.0527 11.8536 15.1464C11.9473 15.2402 12 15.3674 12 15.5C12 15.6326 11.9473 15.7598 11.8536 15.8536C11.7598 15.9473 11.6326 16 11.5 16ZM15.5 13H8.5C8.36739 13 8.24021 12.9473 8.14645 12.8536C8.05268 12.7598 8 12.6326 8 12.5C8 12.3674 8.05268 12.2402 8.14645 12.1464C8.24021 12.0527 8.36739 12 8.5 12H15.5C15.6326 12 15.7598 12.0527 15.8536 12.1464C15.9473 12.2402 16 12.3674 16 12.5C16 12.6326 15.9473 12.7598 15.8536 12.8536C15.7598 12.9473 15.6326 13 15.5 13ZM15.5 10H8.5C8.36739 10 8.24021 9.94732 8.14645 9.85355C8.05268 9.75979 8 9.63261 8 9.5C8 9.36739 8.05268 9.24021 8.14645 9.14645C8.24021 9.05268 8.36739 9 8.5 9H15.5C15.6326 9 15.7598 9.05268 15.8536 9.14645C15.9473 9.24021 16 9.36739 16 9.5C16 9.63261 15.9473 9.75979 15.8536 9.85355C15.7598 9.94732 15.6326 10 15.5 10ZM15.5 7H8.5C8.36739 7 8.24021 6.94732 8.14645 6.85355C8.05268 6.75979 8 6.63261 8 6.5C8 6.36739 8.05268 6.24021 8.14645 6.14645C8.24021 6.05268 8.36739 6 8.5 6H15.5C15.6326 6 15.7598 6.05268 15.8536 6.14645C15.9473 6.24021 16 6.36739 16 6.5C16 6.63261 15.9473 6.75979 15.8536 6.85355C15.7598 6.94732 15.6326 7 15.5 7Z" />
  </symbol>

  <symbol id="insights" viewBox="0 0 24 24">
    <path fill="currentColor" d="M12 4C12.3 4 12.5 3.8 12.5 3.5V1.5C12.5 1.2 12.3 1 12 1C11.7 1 11.5 1.2 11.5 1.5V3.5C11.5 3.8 11.7 4 12 4Z" />
    <path fill="currentColor" d="M13.5 21.5H10.5C10.2 21.5 10 21.7 10 22C10 22.3 10.2 22.5 10.5 22.5H13.5C13.8 22.5 14 22.3 14 22C14 21.7 13.8 21.5 13.5 21.5Z" />
    <path fill="currentColor" d="M12 5.5C8.4 5.5 5.5 8.4 5.5 12C5.5 14.45 6.85 16.65 9 17.75V20C9 20.3 9.2 20.5 9.5 20.5H14.5C14.8 20.5 15 20.3 15 20V17.75C18.2 16.1 19.4 12.15 17.75 9C16.65 6.85 14.45 5.5 12 5.5Z" />
    <path fill="currentColor" d="M5.34999 6.04999C5.54999 6.24999 5.84999 6.24999 6.04999 6.04999C6.24999 5.84999 6.24999 5.54999 6.04999 5.34999L4.64999 3.94999C4.44999 3.74999 4.14999 3.74999 3.94999 3.94999C3.74999 4.14999 3.74999 4.44999 3.94999 4.64999L5.34999 6.04999Z" />
    <path fill="currentColor" d="M18.3 6.19999C18.45 6.19999 18.55 6.14999 18.65 6.04999L20.05 4.64999C20.25 4.44999 20.25 4.14999 20.05 3.94999C19.85 3.74999 19.55 3.74999 19.35 3.94999L17.95 5.34999C17.75 5.54999 17.75 5.84999 17.95 6.04999C18.05 6.14999 18.15 6.19999 18.3 6.19999Z" />
    <path fill="currentColor" d="M4 12C4 11.7 3.8 11.5 3.5 11.5H1.5C1.2 11.5 1 11.7 1 12C1 12.3 1.2 12.5 1.5 12.5H3.5C3.8 12.5 4 12.3 4 12Z" />
    <path fill="currentColor" d="M22.5 11.5H20.5C20.2 11.5 20 11.7 20 12C20 12.3 20.2 12.5 20.5 12.5H22.5C22.8 12.5 23 12.3 23 12C23 11.7 22.8 11.5 22.5 11.5Z" />
    <path fill="currentColor" d="M21.1 18.05L19.35 17.05C19.1 16.9 18.8 17 18.65 17.2C18.5 17.4 18.6 17.75 18.8 17.9L20.55 18.9C20.8 19.05 21.1 18.95 21.25 18.75C21.4 18.55 21.35 18.2 21.1 18.05C21.15 18.05 21.1 18.05 21.1 18.05Z" />
    <path fill="currentColor" d="M4.60001 17.05L2.85001 18.05C2.60001 18.2 2.50001 18.5 2.65001 18.75C2.80001 19 3.10001 19.1 3.35001 18.95L5.10001 17.95C5.35001 17.8 5.45001 17.5 5.30001 17.25C5.15001 17 4.85001 16.9 4.60001 17.05C4.65001 17.05 4.60001 17.05 4.60001 17.05Z" />
  </symbol>

  <symbol id="help" viewBox="0 0 24 24">
    <path fill="currentColor" d="M20.7129 6.5481L12.2129 2.5481C12.1464 2.51627 12.0737 2.49976 12 2.49976C11.9263 2.49976 11.8536 2.51627 11.7871 2.5481L3.2871 6.5481C3.20125 6.58842 3.12866 6.65236 3.07782 6.73243C3.02697 6.8125 2.99998 6.9054 3 7.00025C3 11.8244 4.47605 18.2258 11.5069 21.3252C11.6219 21.376 11.7134 21.416 11.7764 21.4473C11.8458 21.482 11.9224 21.5 12 21.5C12.0776 21.5 12.1542 21.482 12.2236 21.4473C12.2866 21.416 12.3779 21.376 12.4931 21.3252C19.5239 18.2258 21 11.8244 21 7.00025C21 6.9054 20.973 6.8125 20.9222 6.73243C20.8713 6.65236 20.7987 6.58842 20.7129 6.5481ZM15.3486 9.9981L11.9761 13.7988C11.9219 13.8597 11.856 13.9088 11.7823 13.9434C11.7086 13.978 11.6287 13.9973 11.5473 14H11.5274C11.3696 14.0001 11.2182 13.938 11.106 13.8272L9.1787 11.927C9.12227 11.8717 9.07731 11.8059 9.04639 11.7332C9.01548 11.6605 8.99922 11.5825 8.99855 11.5035C8.99788 11.4245 9.01282 11.3462 9.04251 11.273C9.07219 11.1998 9.11604 11.1332 9.17153 11.077C9.22702 11.0209 9.29306 10.9762 9.36586 10.9456C9.43867 10.915 9.5168 10.899 9.59578 10.8987C9.67475 10.8984 9.75301 10.9136 9.82607 10.9436C9.89913 10.9736 9.96554 11.0178 10.0215 11.0735L11.4986 12.5295L14.4511 9.2014C14.5568 9.08238 14.7055 9.01022 14.8643 9.00078C15.0232 8.99135 15.1793 9.04542 15.2984 9.1511C15.4174 9.25677 15.4895 9.4054 15.499 9.56428C15.5084 9.72316 15.4543 9.87928 15.3486 9.9983V9.9981Z" />
  </symbol>

  <symbol id="settings" viewBox="0 0 24 24">
    <path fill="currentColor" d="M20.1117 12.9985C19.9592 12.8805 19.8357 12.7292 19.7508 12.5561C19.6658 12.383 19.6217 12.1927 19.6217 11.9999C19.6217 11.8071 19.6658 11.6169 19.7508 11.4438C19.8357 11.2707 19.9592 11.1193 20.1117 11.0014C20.5045 10.6979 20.7866 10.2736 20.9143 9.79392C21.042 9.31424 21.0083 8.80585 20.8183 8.34724C20.6284 7.88862 20.2928 7.50527 19.8633 7.25636C19.4338 7.00745 18.9344 6.90682 18.442 6.97C18.2507 6.99456 18.0564 6.97495 17.8739 6.91267C17.6914 6.8504 17.5256 6.74711 17.3892 6.61076C17.2529 6.47441 17.1496 6.30861 17.0873 6.12611C17.0251 5.94361 17.0054 5.74926 17.03 5.558C17.0932 5.06564 16.9925 4.56618 16.7436 4.1367C16.4947 3.70723 16.1114 3.37162 15.6527 3.18167C15.1941 2.99172 14.6857 2.958 14.2061 3.08571C13.7264 3.21342 13.3021 3.49546 12.9986 3.8883C12.8765 4.03452 12.7238 4.15214 12.5512 4.23285C12.3787 4.31356 12.1905 4.3554 12 4.3554C11.8095 4.3554 11.6213 4.31356 11.4488 4.23285C11.2762 4.15214 11.1235 4.03452 11.0014 3.8883C10.698 3.49547 10.2736 3.21343 9.79396 3.08572C9.31428 2.95802 8.80591 2.99173 8.34729 3.18167C7.88868 3.37161 7.50533 3.70721 7.25642 4.13668C7.0075 4.56614 6.90685 5.0656 6.97001 5.55795C6.99456 5.74921 6.97495 5.94356 6.91268 6.12606C6.8504 6.30856 6.74712 6.47436 6.61076 6.61071C6.47441 6.74706 6.30862 6.85035 6.12612 6.91262C5.94362 6.9749 5.74927 6.99451 5.55801 6.96995C5.06564 6.90675 4.56615 7.00738 4.13666 7.25629C3.70717 7.5052 3.37154 7.88856 3.18159 8.34719C2.99165 8.80582 2.95794 9.31422 3.08567 9.79391C3.21341 10.2736 3.49548 10.6979 3.88836 11.0014C4.04086 11.1193 4.16432 11.2707 4.24926 11.4438C4.33419 11.6169 4.37836 11.8071 4.37836 11.9999C4.37836 12.1927 4.33419 12.383 4.24926 12.5561C4.16432 12.7292 4.04086 12.8805 3.88836 12.9985C3.49547 13.3019 3.21339 13.7263 3.08565 14.206C2.95791 14.6857 2.99162 15.1941 3.18156 15.6527C3.37151 16.1114 3.70714 16.4947 4.13664 16.7436C4.56613 16.9926 5.06563 17.0932 5.55801 17.03C5.74927 17.0054 5.94361 17.025 6.12611 17.0873C6.30861 17.1496 6.47441 17.2529 6.61076 17.3892C6.74712 17.5256 6.8504 17.6913 6.91268 17.8738C6.97495 18.0563 6.99457 18.2507 6.97001 18.442C6.89798 18.9353 6.99484 19.4386 7.24486 19.87C7.49489 20.3014 7.8834 20.6356 8.3473 20.8184C8.63005 20.9369 8.9334 20.9987 9.24001 21C9.58232 20.9984 9.91959 20.9173 10.2252 20.7631C10.5309 20.609 10.7966 20.386 11.0014 20.1117C11.1235 19.9655 11.2762 19.8479 11.4488 19.7672C11.6213 19.6865 11.8095 19.6446 12 19.6446C12.1905 19.6446 12.3787 19.6865 12.5512 19.7672C12.7238 19.8479 12.8765 19.9655 12.9986 20.1117C13.3021 20.5046 13.7264 20.7866 14.2061 20.9143C14.6858 21.042 15.1942 21.0083 15.6528 20.8183C16.1114 20.6284 16.4948 20.2927 16.7437 19.8632C16.9926 19.4338 17.0932 18.9343 17.03 18.4419C17.0055 18.2506 17.0251 18.0563 17.0873 17.8738C17.1496 17.6913 17.2529 17.5255 17.3893 17.3892C17.5256 17.2528 17.6914 17.1496 17.8739 17.0873C18.0564 17.025 18.2507 17.0054 18.442 17.03C18.9344 17.0932 19.4338 16.9925 19.8633 16.7436C20.2928 16.4947 20.6284 16.1113 20.8184 15.6527C21.0083 15.1941 21.042 14.6857 20.9143 14.206C20.7866 13.7263 20.5045 13.302 20.1117 12.9986V12.9985ZM12 15.4984C11.3081 15.4984 10.6317 15.2932 10.0564 14.9088C9.48105 14.5244 9.03264 13.978 8.76785 13.3387C8.50307 12.6995 8.43379 11.9961 8.56878 11.3174C8.70377 10.6388 9.03697 10.0154 9.52625 9.52616C10.0155 9.03689 10.6389 8.7037 11.3175 8.56872C11.9962 8.43373 12.6996 8.50302 13.3388 8.76782C13.9781 9.03262 14.5245 9.48103 14.9089 10.0564C15.2933 10.6317 15.4985 11.3081 15.4985 12C15.4973 12.9275 15.1284 13.8167 14.4725 14.4725C13.8167 15.1283 12.9275 15.4973 12 15.4984Z" />
  </symbol>
</svg>
