<svg xmlns="http://www.w3.org/2000/svg" style="display: none;">
  <symbol id="logout" viewBox="0 0 16 16">
    <path d="M10.1667 2.00003H2.33333C2.13333 2.00003 2 2.13336 2 2.33336V13.6667C2 13.8667 2.13333 14 2.33333 14H10.1667C10.3667 14 10.5 13.8667 10.5 13.6667V9.83336C10.5 9.63336 10.3667 9.50003 10.1667 9.50003C9.96667 9.50003 9.83333 9.63336 9.83333 9.83336V13.3334H2.66667V2.6667H9.83333V6.1667C9.83333 6.3667 9.96667 6.50003 10.1667 6.50003C10.3667 6.50003 10.5 6.3667 10.5 6.1667V2.33336C10.5 2.13336 10.3333 2.00003 10.1667 2.00003Z" fill="currentColor"/>
    <path d="M13.7334 8.13336C13.7667 8.06669 13.7667 7.96669 13.7334 7.86669C13.7 7.83336 13.7 7.80003 13.6667 7.76669L11.7667 5.86669C11.6334 5.73336 11.4334 5.73336 11.3 5.86669C11.1667 6.00003 11.1667 6.20003 11.3 6.33336L12.6 7.63336H7.73336C7.53336 7.63336 7.40002 7.76669 7.40002 7.96669C7.40002 8.16669 7.53336 8.30003 7.73336 8.30003H12.6L11.3 9.66669C11.1667 9.80003 11.1667 10 11.3 10.1334C11.4334 10.2667 11.6334 10.2667 11.7667 10.1334L13.6667 8.23336C13.6667 8.20003 13.7 8.16669 13.7334 8.13336Z" fill="currentColor"/>
  </symbol>
</svg>
